<svg width="21" height="21" viewBox="0 0 21 21" fill="none" xmlns="http://www.w3.org/2000/svg">
<path d="M10.5 21C16.299 21 21 16.299 21 10.5C21 4.70101 16.299 0 10.5 0C4.70101 0 0 4.70101 0 10.5C0 16.299 4.70101 21 10.5 21Z" fill="#3E3E5E"/>
<path d="M10.4998 19.5481C15.4703 19.5747 19.5213 15.5668 19.5479 10.5963C19.5745 5.62578 15.5667 1.5748 10.5961 1.54819C5.6256 1.52157 1.57462 5.52941 1.54801 10.4999C1.52139 15.4705 5.52923 19.5215 10.4998 19.5481Z" fill="white"/>
<path d="M9.63341 12.75C9.55856 12.75 9.49868 12.75 9.42383 12.6724L8.31608 11.5242C8.28614 11.4931 8.27117 11.4776 8.27117 11.4466C8.2562 11.4311 8.24123 11.369 8.2562 11.3069C8.2562 11.2759 8.27117 11.2604 8.28614 11.2449C8.30111 11.2293 8.31608 11.2138 8.33105 11.1983C8.36099 11.1673 8.37596 11.1362 8.39093 11.1207C8.66038 10.8569 8.91486 10.5931 9.18432 10.3448C9.78311 9.73967 10.3819 9.13449 10.9807 8.52931C10.9807 8.49828 11.0256 8.31207 11.1603 8.26552C11.2052 8.25 11.2651 8.25 11.295 8.25C11.3699 8.25 11.4298 8.25 11.5046 8.32759L12.6722 9.47587C12.7172 9.53794 12.7621 9.61553 12.7471 9.69311C12.7321 9.7707 12.6573 9.81725 12.6273 9.83277C12.4926 9.91036 12.0735 10.3448 11.2801 11.2138C10.801 11.6949 10.337 12.1759 9.85795 12.6414C9.84298 12.6569 9.82801 12.7035 9.78311 12.7345C9.7382 12.75 9.69329 12.75 9.63341 12.75Z" fill="#AF145B"/>
<path d="M12.8968 7.20304L10.4185 4.98322C10.0435 4.71141 9.58697 4.5 9.06523 4.5C8.54349 4.5 8.02174 4.71141 7.64674 5.05873C7.5 5.13423 7.5 5.19464 7.5 5.27014C7.5 5.34564 7.5 5.40605 7.58152 5.48155L10.9565 8.47151C11.0381 8.54701 11.1033 8.54701 11.1033 8.60741C11.8533 9.37755 11.9348 10.4799 11.25 11.2501L12.8968 9.78528C13.2718 9.51346 13.5 9.01513 13.5 8.53191C13.5 8.04868 13.2718 7.55036 12.8968 7.20304Z" fill="url(#paint0_linear_2141_17152)"/>
<path d="M9.82432 12.3698C9.07664 11.6063 8.99537 10.5135 9.74305 9.75L8.1014 11.2021C7.72756 11.5464 7.5 12.0255 7.5 12.5045C7.5 12.9836 7.72756 13.4626 8.1014 13.8069L11.6935 17.1752C11.7748 17.2501 11.8398 17.2501 11.9211 17.2501C12.0024 17.2501 12.0674 17.2501 12.1486 17.1752C12.5225 16.8309 12.75 16.3518 12.75 15.8728C12.75 15.3938 12.5225 14.9147 12.1486 14.5704L9.90559 12.5045C9.88934 12.4297 9.82432 12.4297 9.82432 12.3698Z" fill="url(#paint1_linear_2141_17152)"/>
<defs>
<linearGradient id="paint0_linear_2141_17152" x1="7.5" y1="7.87503" x2="13.5" y2="7.87503" gradientUnits="userSpaceOnUse">
<stop stop-color="#CB0766"/>
<stop offset="1" stop-color="#E04391"/>
</linearGradient>
<linearGradient id="paint1_linear_2141_17152" x1="7.44165" y1="13.5" x2="12.7257" y2="13.5" gradientUnits="userSpaceOnUse">
<stop stop-color="#CB0766"/>
<stop offset="1" stop-color="#E04391"/>
</linearGradient>
</defs>
</svg>
