<svg width="1439" height="119" viewBox="0 0 1439 119" fill="none" xmlns="http://www.w3.org/2000/svg">
<g clip-path="url(#clip0_213_914)">
<g filter="url(#filter0_f_213_914)">
<path d="M0 40.8341C20.0688 42.7727 40.3569 44.6038 60.8322 46.3314M1439.53 40.8341C1422.9 42.6347 1404.74 44.4042 1385.18 46.1275M81.2758 48.0171C93.6796 49.0164 106.147 49.9784 118.673 50.9041M171.028 54.544C186.255 55.5375 201.55 56.48 216.902 57.3733M258.786 59.6816C279.16 60.7431 299.613 61.7208 320.117 62.6179M427.82 66.5964C437.792 66.8992 447.766 67.1845 457.737 67.4526M547.989 69.4225C576.198 69.8985 604.31 70.2448 632.256 70.4694M701.066 70.7825C721.983 70.8052 742.769 70.7623 763.394 70.6574M817.246 70.2409C821.576 70.1959 825.897 70.1483 830.21 70.0981M947.885 68.0431C1026.09 66.2182 1100.08 63.5627 1167.78 60.3183" stroke="#FFD400" stroke-width="2"/>
</g>
<g filter="url(#filter1_df_213_914)">
<path d="M0 40.8341C20.0688 42.7727 40.3569 44.6038 60.8322 46.3314M1439.53 40.8341C1422.9 42.6347 1404.74 44.4042 1385.18 46.1275M81.2758 48.0171C93.6796 49.0164 106.147 49.9784 118.673 50.9041M171.028 54.544C186.255 55.5375 201.55 56.48 216.902 57.3733M258.786 59.6816C279.16 60.7431 299.613 61.7208 320.117 62.6179M427.82 66.5964C437.792 66.8992 447.766 67.1845 457.737 67.4526M547.989 69.4225C576.198 69.8985 604.31 70.2448 632.256 70.4694M701.066 70.7825C721.983 70.8052 742.769 70.7623 763.394 70.6574M817.246 70.2409C821.576 70.1959 825.897 70.1483 830.21 70.0981M947.885 68.0431C1026.09 66.2182 1100.08 63.5627 1167.78 60.3183" stroke="url(#paint0_linear_213_914)" stroke-width="5" shape-rendering="crispEdges"/>
</g>
<g filter="url(#filter2_df_213_914)">
<path d="M19.7793 42.7472C39.8481 44.6858 20.5232 43.1415 40.9985 44.8691M1432.98 41.1558C1416.35 42.9563 1417.53 43.1459 1397.97 44.8691M94.5771 48.5825C106.981 49.5818 94.7832 48.7177 107.309 49.6435M171.028 54.544C186.255 55.5375 201.55 56.48 216.902 57.3733M274.41 60.2531C294.784 61.3145 289.448 62.0084 309.953 62.9055M427.82 66.5964C437.793 66.8992 447.766 67.1845 457.738 67.4527M564.053 69.8018C592.262 70.2777 593.399 70.638 621.345 70.8627M715.771 70.6574C736.687 70.6802 724.852 70.7623 745.478 70.6574M817.246 70.2409C821.576 70.196 825.897 70.1483 830.21 70.0981M990.56 67.1493C1068.76 65.3244 1060.78 65.6195 1128.49 62.375" stroke="#FFE533" shape-rendering="crispEdges"/>
</g>
</g>
<defs>
<filter id="filter0_f_213_914" x="-2.0957" y="37.8387" width="1443.73" height="35.9497" filterUnits="userSpaceOnUse" color-interpolation-filters="sRGB">
<feFlood flood-opacity="0" result="BackgroundImageFix"/>
<feBlend mode="normal" in="SourceGraphic" in2="BackgroundImageFix" result="shape"/>
<feGaussianBlur stdDeviation="1" result="effect1_foregroundBlur_213_914"/>
</filter>
<filter id="filter1_df_213_914" x="-44.2402" y="-5.6543" width="1528.04" height="122.943" filterUnits="userSpaceOnUse" color-interpolation-filters="sRGB">
<feFlood flood-opacity="0" result="BackgroundImageFix"/>
<feColorMatrix in="SourceAlpha" type="matrix" values="0 0 0 0 0 0 0 0 0 0 0 0 0 0 0 0 0 0 127 0" result="hardAlpha"/>
<feOffset/>
<feGaussianBlur stdDeviation="22"/>
<feComposite in2="hardAlpha" operator="out"/>
<feColorMatrix type="matrix" values="0 0 0 0 0.950635 0 0 0 0 0.530454 0 0 0 0 0 0 0 0 1 0"/>
<feBlend mode="normal" in2="BackgroundImageFix" result="effect1_dropShadow_213_914"/>
<feBlend mode="normal" in="SourceGraphic" in2="effect1_dropShadow_213_914" result="shape"/>
<feGaussianBlur stdDeviation="2" result="effect2_foregroundBlur_213_914"/>
</filter>
<filter id="filter2_df_213_914" x="-25.2695" y="-4.34131" width="1503.3" height="120.704" filterUnits="userSpaceOnUse" color-interpolation-filters="sRGB">
<feFlood flood-opacity="0" result="BackgroundImageFix"/>
<feColorMatrix in="SourceAlpha" type="matrix" values="0 0 0 0 0 0 0 0 0 0 0 0 0 0 0 0 0 0 127 0" result="hardAlpha"/>
<feOffset/>
<feGaussianBlur stdDeviation="22.5"/>
<feComposite in2="hardAlpha" operator="out"/>
<feColorMatrix type="matrix" values="0 0 0 0 0.950635 0 0 0 0 0.781422 0 0 0 0 0 0 0 0 1 0"/>
<feBlend mode="normal" in2="BackgroundImageFix" result="effect1_dropShadow_213_914"/>
<feBlend mode="normal" in="SourceGraphic" in2="effect1_dropShadow_213_914" result="shape"/>
<feGaussianBlur stdDeviation="1" result="effect2_foregroundBlur_213_914"/>
</filter>
<linearGradient id="paint0_linear_213_914" x1="0" y1="56.2423" x2="1439.03" y2="56.2423" gradientUnits="userSpaceOnUse">
<stop stop-color="#F3972B" stop-opacity="0.5"/>
<stop offset="0.0152082" stop-color="#F3BF2B"/>
<stop offset="0.0249681" stop-color="#F3B92B" stop-opacity="0.956006"/>
<stop offset="0.0481213" stop-color="#F3972B" stop-opacity="0.5"/>
<stop offset="0.0701498" stop-color="#F3BF2B"/>
<stop offset="0.100852" stop-color="#F3972B" stop-opacity="0"/>
<stop offset="0.13561" stop-color="#F3BF2B"/>
<stop offset="0.163995" stop-color="#F3972B" stop-opacity="0.5"/>
<stop offset="0.202607" stop-color="#F3BF2B"/>
<stop offset="0.26595" stop-color="#F3972B" stop-opacity="0.739847"/>
<stop offset="0.308818" stop-color="#F3BF2B"/>
<stop offset="0.34821" stop-color="#F3972B" stop-opacity="0.5"/>
<stop offset="0.409615" stop-color="#F3BF2B"/>
<stop offset="0.461172" stop-color="#F3972B" stop-opacity="0.5"/>
<stop offset="0.509832" stop-color="#F3BF2B"/>
<stop offset="0.548066" stop-color="#F3972B" stop-opacity="0"/>
<stop offset="0.573554" stop-color="#F3BF2B" stop-opacity="0.5"/>
<stop offset="0.606574" stop-color="#F3972B" stop-opacity="0.5"/>
<stop offset="0.658256" stop-color="#F3972B" stop-opacity="0.5"/>
<stop offset="0.711327" stop-color="#F3BF2B"/>
<stop offset="0.742514" stop-color="#F3BF2B"/>
<stop offset="0.814187" stop-color="#F3972B" stop-opacity="0.5"/>
<stop offset="0.906647" stop-color="#F3972B" stop-opacity="0"/>
<stop offset="1" stop-color="#F3BF2B"/>
</linearGradient>
<clipPath id="clip0_213_914">
<rect width="1440" height="119" fill="white"/>
</clipPath>
</defs>
</svg>
