<svg width="23" height="20" viewBox="0 0 23 20" fill="none" xmlns="http://www.w3.org/2000/svg">
<g clip-path="url(#clip0_7952_14539)">
<g clip-path="url(#clip1_7952_14539)">
<path d="M19.5984 5.65066C19.6153 5.53739 19.6166 5.42409 19.6518 5.32256C19.7143 5.14546 19.7703 4.95536 19.8783 4.80693C20.0203 4.61423 20.2442 4.61943 20.4994 4.77696C20.5476 4.66759 20.5737 4.53999 20.6479 4.45406C20.7846 4.29519 20.9278 4.12203 21.1062 4.02436C21.3601 3.88506 21.5281 3.99573 21.7117 4.36423C21.9929 4.25223 22.2976 4.01656 22.5776 4.31343C22.838 4.58946 22.6336 4.87723 22.4981 5.15979C22.5567 5.18713 22.6049 5.20926 22.6531 5.23399C22.9044 5.36163 22.9968 5.62073 22.8067 5.85249C22.6231 6.07646 22.3627 6.23663 22.1283 6.43063C22.3862 6.84729 22.1947 7.04913 21.2911 7.26786C21.2638 7.43583 21.2846 7.61553 21.2078 7.72489C21.0828 7.90066 20.8679 7.86683 20.6778 7.80693C20.2963 7.68713 19.9343 7.74313 19.5932 7.93453C19.3054 8.09729 19.0255 8.27566 18.7664 8.48009C19.1531 8.40719 19.5359 8.30043 19.9265 8.26916C20.3692 8.23399 20.8171 8.25613 21.2625 8.27826C21.3718 8.28349 21.4734 8.39156 21.5828 8.44363C21.6713 8.48529 21.7638 8.52046 21.8575 8.54519C22.1726 8.62593 22.2403 8.70926 22.2338 9.03219C22.4838 9.13376 22.6257 9.29259 22.4786 9.58296C22.4643 9.61029 22.4981 9.66759 22.519 9.70536C22.5424 9.74703 22.5789 9.77959 22.6062 9.81863C22.7546 10.0283 22.8822 10.2588 22.7364 10.5035C22.5828 10.7627 22.308 10.7796 22.0346 10.747C21.9643 10.7392 21.8953 10.7249 21.8289 10.7145C21.6987 11.0582 21.5112 11.1155 21.2156 10.8968C21.0893 10.803 20.9825 10.6806 20.8666 10.5713C20.4864 10.8616 20.3523 10.8056 20.032 10.2145C19.6739 10.3356 19.5398 10.2614 19.4343 9.88896C19.3432 9.56733 19.2182 9.42933 18.877 9.43843C18.6075 9.44626 18.3406 9.54779 18.075 9.61943C17.9942 9.64156 17.9252 9.70276 17.8927 9.68323L17.1713 8.95406C17.2247 8.83296 17.3263 8.64286 17.3914 8.44233C17.4343 8.30953 17.4447 8.15979 17.4382 8.01916C17.42 7.65459 17.3106 7.53219 16.9578 7.43063C16.6062 7.33036 16.5177 7.15979 16.6596 6.86943C16.5033 6.74833 16.3289 6.64676 16.2 6.50353C16.0333 6.31863 16.1244 6.15066 16.3119 6.03349C16.1674 5.85639 16.0059 5.70796 15.907 5.52696C15.7651 5.26916 15.8432 5.14026 16.157 5.06083C16.144 4.97229 16.1257 4.88243 16.1179 4.78999C16.0971 4.53479 16.1231 4.27959 16.364 4.13506C16.5906 3.99833 16.8171 4.09599 17.0099 4.23793C17.1466 4.33816 17.252 4.41629 17.4487 4.35119C17.6648 4.27959 17.7716 4.46446 17.838 4.64026C18.1557 4.62853 18.2403 4.69363 18.3197 4.98793C18.3575 5.12593 18.3419 5.28349 18.5151 5.36813C18.5697 5.39416 18.588 5.52176 18.5984 5.60639C18.6934 6.37463 18.6518 7.13506 18.4278 7.87983C18.407 7.94756 18.3914 8.01656 18.3744 8.08426C18.3731 8.08816 18.3822 8.09599 18.4096 8.12983C18.8119 7.51006 19.3184 6.94756 19.0528 6.12203C19.032 6.05563 19.0216 5.98009 19.0281 5.90979C19.058 5.60379 19.2416 5.51656 19.5984 5.65066Z" fill="#F3BF2B"/>
<path d="M18.928 10.4751C18.7118 9.39048 17.3681 8.35401 16.2874 8.17954C14.8004 7.84751 13.9592 8.75764 13.2118 9.73291C13.1624 9.79671 13.178 9.88918 13.2444 9.93474C13.4905 10.104 13.7353 10.2863 13.9762 10.4829C14.1025 10.5858 13.9775 10.785 13.8303 10.7147C13.5178 10.5662 13.2157 10.4282 12.9228 10.3006C12.8629 10.2746 12.7926 10.2928 12.7522 10.3462C11.8941 11.4972 11.0569 12.6639 10.217 13.828C10.1715 13.8918 10.1858 13.979 10.2483 14.0246C10.4045 14.1392 10.5608 14.2576 10.7144 14.3826C10.8433 14.4868 10.717 14.6886 10.5673 14.617C10.3681 14.522 10.1728 14.4321 9.98006 14.3449C9.91886 14.3175 9.84856 14.3371 9.80819 14.3918C9.28216 15.1157 8.74049 15.828 8.22096 16.5558C7.49569 17.5701 6.86416 18.9751 7.21313 19.4777C7.53083 19.9373 9.12199 19.6834 10.2874 18.7616C10.6051 18.5103 10.9449 18.2876 11.2769 18.0545C11.3329 18.0155 11.3525 17.9425 11.3251 17.88C11.2444 17.7017 11.1598 17.5207 11.0725 17.3358C11.0022 17.1873 11.2014 17.0623 11.3043 17.1899C11.4215 17.3332 11.5335 17.479 11.6402 17.6248C11.6858 17.6873 11.7717 17.7017 11.8355 17.6561C13.0035 16.8267 14.1767 16.0037 15.3577 15.1938C15.4137 15.1561 15.4345 15.0845 15.4072 15.022C15.2756 14.7199 15.1337 14.4074 14.9801 14.0845C14.9098 13.9373 15.109 13.8123 15.2118 13.9386C15.4215 14.1964 15.6168 14.4595 15.7965 14.7238C15.8407 14.7889 15.928 14.8058 15.9918 14.7616C16.2848 14.5623 16.5764 14.3618 16.8707 14.1639C18.2053 13.2655 19.0999 12.1847 18.928 10.4751Z" fill="#F3BF2B"/>
<path d="M1.83203 8.76203C1.76004 8.74819 1.68764 8.74439 1.62362 8.71923C1.51204 8.67456 1.39195 8.63376 1.29989 8.56073C1.18041 8.46486 1.18966 8.32179 1.29715 8.16276C1.22849 8.12906 1.14758 8.10903 1.09458 8.05929C0.996618 7.96769 0.889665 7.87153 0.831931 7.75486C0.749551 7.58883 0.824765 7.48436 1.06525 7.37669C1.00107 7.19386 0.858421 6.99283 1.05566 6.82166C1.23905 6.66243 1.41766 6.80073 1.59476 6.89479C1.61379 6.85806 1.62922 6.82783 1.64632 6.79769C1.73455 6.64036 1.90269 6.58809 2.04587 6.71576C2.18423 6.83909 2.27976 7.00986 2.39763 7.16486C2.67088 7.01099 2.79488 7.13873 2.91088 7.72236C3.01757 7.74426 3.13302 7.73569 3.20093 7.78773C3.31003 7.87229 3.2827 8.00879 3.23938 8.12876C3.1527 8.36956 3.17893 8.60249 3.29232 8.82569C3.38879 9.01403 3.49546 9.19776 3.61933 9.36883C3.58293 9.11963 3.52477 8.87203 3.51511 8.62139C3.50432 8.33739 3.53032 8.05153 3.55624 7.76736C3.56246 7.69756 3.63425 7.63549 3.67043 7.56693C3.69943 7.51139 3.72436 7.45319 3.74266 7.39393C3.8026 7.19456 3.85767 7.15346 4.064 7.16616C4.13557 7.00896 4.24086 6.92242 4.42267 7.02419C4.43976 7.03406 4.4773 7.01393 4.502 7.00159C4.52926 6.98773 4.55103 6.96526 4.57673 6.94879C4.71473 6.85943 4.86547 6.78393 5.01813 6.88366C5.17977 6.98873 5.18333 7.16486 5.1553 7.33886C5.14843 7.38363 5.13747 7.42736 5.12903 7.46956C5.34543 7.56189 5.3771 7.68333 5.2294 7.86653C5.16613 7.94483 5.08503 8.00986 5.01203 8.08109C5.18766 8.33189 5.1483 8.41616 4.76183 8.60536C4.8298 8.83753 4.7788 8.92133 4.5379 8.97893C4.32983 9.02873 4.23827 9.10499 4.23506 9.32339C4.23293 9.49596 4.29083 9.66933 4.3296 9.84106C4.34163 9.89329 4.37893 9.93903 4.3656 9.95933L3.88026 10.4013C3.80423 10.364 3.68536 10.294 3.55885 10.2471C3.47506 10.2161 3.37958 10.2055 3.28949 10.2059C3.05587 10.208 2.97472 10.2747 2.90045 10.4976C2.82704 10.7198 2.71563 10.7719 2.53371 10.6735C2.45214 10.7702 2.38259 10.8791 2.28759 10.9577C2.16496 11.0594 2.05996 10.9967 1.98998 10.8737C1.87292 10.9614 1.77373 11.0608 1.65538 11.1192C1.48677 11.2032 1.40641 11.1498 1.36391 10.9471C1.30695 10.9531 1.24902 10.9623 1.18969 10.9649C1.02595 10.9715 0.863445 10.9481 0.777388 10.7902C0.695951 10.6417 0.764385 10.4994 0.860235 10.38C0.927958 10.2952 0.980701 10.2298 0.944268 10.1024C0.904185 9.96223 1.02524 9.89886 1.1394 9.86102C1.1403 9.65756 1.18417 9.60516 1.37444 9.56216C1.46369 9.54166 1.56403 9.55579 1.62272 9.44729C1.64082 9.41303 1.7229 9.40473 1.7773 9.40029C2.27106 9.35983 2.75621 9.40656 3.22655 9.56946C3.26929 9.58456 3.31301 9.59639 3.35586 9.60899C3.35832 9.60993 3.36356 9.60433 3.38593 9.58773C3.00023 9.31406 2.65393 8.97529 2.11902 9.12336C2.07601 9.13493 2.02744 9.13959 1.98265 9.13356C1.78778 9.10633 1.73684 8.98663 1.83203 8.76203Z" fill="#F3BF2B"/>
<path d="M4.89829 9.31776C4.19899 9.42732 3.50071 10.2592 3.36058 10.9457C3.10896 11.8877 3.66875 12.4497 4.27262 12.9534C4.31212 12.9867 4.37165 12.9791 4.40255 12.9379C4.51729 12.785 4.64032 12.6333 4.77242 12.4844C4.84152 12.4064 4.96562 12.4916 4.91675 12.5838C4.81359 12.7797 4.71735 12.9692 4.62802 13.1532C4.60979 13.1908 4.61959 13.2363 4.65265 13.2635C5.36602 13.8426 6.08992 14.4088 6.81209 14.9766C6.85169 15.0074 6.90785 15.0006 6.93862 14.9618C7.01602 14.8649 7.09592 14.7682 7.17992 14.6732C7.24995 14.5935 7.37565 14.6796 7.32592 14.7735C7.25985 14.8984 7.19725 15.0209 7.13635 15.1418C7.11725 15.1802 7.12789 15.2257 7.16179 15.253C7.61085 15.6085 8.05195 15.9737 8.50369 16.3251C9.13312 16.8157 10.0148 17.2566 10.3455 17.0468C10.6478 16.8558 10.5275 15.8316 9.96875 15.062C9.81645 14.8522 9.68305 14.629 9.54279 14.4106C9.51929 14.3737 9.47319 14.3593 9.43249 14.3751C9.31629 14.422 9.19832 14.4714 9.07779 14.5223C8.98099 14.5633 8.90632 14.4326 8.99065 14.3702C9.08532 14.2991 9.18155 14.2313 9.27762 14.1669C9.31879 14.1394 9.33022 14.0848 9.30275 14.0428C8.80325 13.274 8.30802 12.5021 7.82135 11.7255C7.79869 11.6887 7.75345 11.6735 7.71275 11.6893C7.51612 11.7654 7.31252 11.8479 7.10199 11.9377C7.00602 11.9787 6.93135 11.848 7.01485 11.7856C7.18525 11.6584 7.35859 11.5404 7.53235 11.4325C7.57515 11.4059 7.58829 11.3506 7.56169 11.3086C7.44202 11.116 7.32152 10.9242 7.20272 10.7308C6.66349 9.85359 5.99605 9.25302 4.89829 9.31776Z" fill="#F3BF2B"/>
<path d="M13.0013 2.02806C12.9871 1.95614 12.9634 1.8876 12.9627 1.81881C12.9622 1.69863 12.955 1.572 12.9882 1.45926C13.0322 1.31255 13.1682 1.26742 13.356 1.30738C13.3615 1.23108 13.3497 1.14857 13.3759 1.08079C13.424 0.955601 13.473 0.820374 13.5595 0.723084C13.6825 0.584407 13.8075 0.614911 13.9976 0.797414C14.1429 0.669324 14.2758 0.461641 14.5085 0.580224C14.7249 0.690457 14.6637 0.907924 14.643 1.10738C14.6842 1.11123 14.718 1.11419 14.7523 1.11872C14.9313 1.14146 15.0428 1.27769 14.9782 1.45833C14.9158 1.63286 14.7934 1.78549 14.694 1.95291C14.9391 2.14845 14.8673 2.31132 14.3698 2.63787C14.3895 2.74499 14.4408 2.84878 14.4181 2.93125C14.3806 3.06412 14.2439 3.09001 14.1164 3.09488C13.8607 3.1049 13.6546 3.21664 13.4903 3.40552C13.3519 3.56559 13.2217 3.73342 13.1096 3.91245C13.3269 3.78519 13.5346 3.63835 13.7633 3.53532C14.0225 3.41875 14.2972 3.33559 14.5703 3.25295C14.6373 3.23252 14.7218 3.27577 14.799 3.28358C14.8613 3.28961 14.9246 3.29088 14.9864 3.28559C15.1937 3.26633 15.2525 3.30196 15.3181 3.49795C15.4907 3.50529 15.6104 3.57045 15.5843 3.77712C15.5816 3.79669 15.6143 3.82392 15.635 3.84219C15.6581 3.86225 15.6871 3.87402 15.712 3.89165C15.8466 3.98602 15.9732 4.09739 15.9381 4.27635C15.9013 4.46562 15.7394 4.53502 15.5676 4.57432C15.5235 4.58475 15.4789 4.59099 15.4366 4.59902C15.4322 4.83425 15.3316 4.90919 15.1063 4.84105C15.01 4.81175 14.9193 4.76102 14.8259 4.72005C14.6593 4.97699 14.5664 4.97215 14.246 4.68492C14.0563 4.83505 13.9595 4.81922 13.8157 4.61752C13.6915 4.44335 13.5864 4.38712 13.3828 4.46612C13.222 4.52892 13.083 4.64765 12.9384 4.74802C12.8945 4.77875 12.8661 4.83052 12.8423 4.82575L12.2505 4.54179C12.2565 4.45732 12.2768 4.32085 12.2728 4.18599C12.2701 4.09669 12.2441 4.00422 12.2099 3.92089C12.1203 3.70509 12.028 3.65489 11.7935 3.66972C11.56 3.68505 11.4699 3.60135 11.4929 3.39579C11.3726 3.35649 11.2456 3.33288 11.137 3.27434C10.9968 3.19883 11.0155 3.07797 11.1032 2.96694C10.978 2.89137 10.8487 2.83671 10.7501 2.74896C10.609 2.62418 10.6283 2.52966 10.8003 2.41418C10.7733 2.36362 10.743 2.31341 10.7184 2.25938C10.6508 2.11007 10.6115 1.95067 10.7255 1.81166C10.8326 1.68045 10.9902 1.69048 11.1369 1.73448C11.2409 1.76544 11.3213 1.78979 11.4257 1.70819C11.5406 1.61846 11.6448 1.70687 11.7227 1.79849C11.9116 1.72297 11.9766 1.74397 12.0879 1.90419C12.1404 1.97923 12.1649 2.07754 12.2875 2.09123C12.3261 2.09514 12.3646 2.16811 12.3891 2.21687C12.6119 2.65934 12.7507 3.12657 12.7762 3.62365C12.7782 3.66895 12.7837 3.71392 12.7881 3.75835C12.7881 3.76099 12.7953 3.76375 12.8191 3.77825C12.928 3.31805 13.112 2.86992 12.7741 2.42967C12.7472 2.39415 12.7246 2.35088 12.7134 2.3071C12.6655 2.11625 12.7574 2.02412 13.0013 2.02806Z" fill="#F3BF2B"/>
<path d="M13.6366 5.07961C13.2726 4.47258 12.2395 4.13751 11.5506 4.26525C10.5829 4.38558 10.2722 5.11535 10.0319 5.86411C10.0158 5.91321 10.0452 5.96558 10.095 5.97871C10.2798 6.02771 10.4666 6.08481 10.6541 6.15138C10.7524 6.18615 10.72 6.33315 10.6162 6.32248C10.3959 6.30038 10.1841 6.28228 9.98007 6.26851C9.93834 6.26575 9.89991 6.29188 9.88707 6.33275C9.61801 7.21131 9.36487 8.09478 9.10961 8.97728C9.09587 9.02555 9.12331 9.07501 9.17081 9.08901C9.28964 9.12441 9.40934 9.16215 9.52887 9.20435C9.62901 9.23935 9.59637 9.38818 9.49071 9.37731C9.35017 9.36295 9.21311 9.35088 9.07817 9.33985C9.03541 9.33655 8.99724 9.36348 8.98471 9.40515C8.82371 9.95478 8.65074 10.5007 8.49451 11.0513C8.27601 11.8188 8.19821 12.8016 8.51681 13.0293C8.80731 13.2378 9.71147 12.7419 10.2151 11.9352C10.3524 11.7153 10.5092 11.5079 10.6591 11.2959C10.6844 11.2603 10.6805 11.2122 10.6505 11.1804C10.5634 11.0903 10.4734 10.9995 10.381 10.9068C10.3067 10.8325 10.3998 10.7143 10.4893 10.769C10.5907 10.8301 10.6897 10.8938 10.7854 10.9587C10.8264 10.9865 10.8812 10.9767 10.9099 10.9354C11.435 10.1839 11.9646 9.43521 12.5018 8.69265C12.5274 8.65785 12.5246 8.61018 12.4946 8.57841C12.3503 8.42471 12.1974 8.26698 12.0352 8.10548C11.9611 8.03195 12.0543 7.91371 12.1435 7.96765C12.3254 8.07785 12.4997 8.19425 12.665 8.31481C12.7057 8.34451 12.7619 8.33591 12.7908 8.29548C12.9244 8.11231 13.057 7.92861 13.1917 7.74595C13.8024 6.91691 14.1086 6.07288 13.6366 5.07961Z" fill="#F3BF2B"/>
</g>
</g>
<defs>
<clipPath id="clip0_7952_14539">
<rect width="22.6672" height="20" fill="white" transform="translate(0.333008)"/>
</clipPath>
<clipPath id="clip1_7952_14539">
<rect width="22.6667" height="20" fill="white" transform="translate(0.333008)"/>
</clipPath>
</defs>
</svg>
