<svg width="1439" height="119" viewBox="0 0 1439 119" fill="none" xmlns="http://www.w3.org/2000/svg">
<g clip-path="url(#clip0_213_909)">
<g filter="url(#filter0_f_213_909)">
<path d="M0 78C23.1673 75.7592 46.6267 73.6618 70.3291 71.7017M1440 78C1429.32 76.8415 1417.99 75.6959 1406.08 74.5672M158.614 65.0954C183.216 63.4389 208.006 61.917 232.934 60.5237M290.793 57.5283C364.368 54.0157 438.785 51.5673 512.754 50.0324M626.976 48.3632C653.412 48.1354 679.701 48.0167 705.785 48M743.194 48.0457C760.429 48.0987 777.56 48.1955 794.569 48.3339M971.14 51.3105C987.47 51.7303 1003.6 52.1861 1019.52 52.6756M1061.92 54.076C1071.99 54.4322 1081.97 54.8017 1091.85 55.184M1183.62 59.2424C1197.72 59.9473 1211.53 60.6777 1225.02 61.4313M1245.47 62.6043C1260.35 63.4809 1274.82 64.3857 1288.87 65.3152M1312.31 66.9181C1322.2 67.6162 1331.84 68.3266 1341.24 69.0479M866.893 49.5531L890.835 49.9568" stroke="#FF0014" stroke-width="2"/>
</g>
<g filter="url(#filter1_f_213_909)">
<path d="M0 78C23.1673 75.7592 46.6267 73.6618 70.3291 71.7017M1440 78C1429.32 76.8415 1417.99 75.6959 1406.08 74.5672M158.614 65.0954C183.216 63.4389 208.006 61.917 232.934 60.5237M290.793 57.5283C364.368 54.0157 438.785 51.5673 512.754 50.0324M626.976 48.3632C653.412 48.1354 679.701 48.0167 705.785 48M743.194 48.0457C760.429 48.0987 777.56 48.1955 794.569 48.3339M971.14 51.3105C987.47 51.7303 1003.6 52.1861 1019.52 52.6756M1061.92 54.076C1071.99 54.4322 1081.97 54.8017 1091.85 55.184M1183.62 59.2424C1197.72 59.9473 1211.53 60.6777 1225.02 61.4313M1245.47 62.6043C1260.35 63.4809 1274.82 64.3857 1288.87 65.3152M1312.31 66.9181C1322.2 67.6162 1331.84 68.3266 1341.24 69.0479M866.893 49.5531L890.835 49.9568" stroke="#FF0000" stroke-width="2"/>
</g>
<g filter="url(#filter2_df_213_909)">
<path d="M0 78C23.1673 75.7592 46.6267 73.6618 70.3291 71.7017M1440 78C1429.32 76.8415 1417.99 75.6959 1406.08 74.5672M158.614 65.0954C183.216 63.4389 208.006 61.917 232.934 60.5237M290.793 57.5283C364.368 54.0157 438.785 51.5673 512.754 50.0324M626.976 48.3632C653.412 48.1354 679.701 48.0167 705.785 48M743.194 48.0457C760.429 48.0987 777.56 48.1955 794.569 48.3339M971.14 51.3105C987.47 51.7303 1003.6 52.1861 1019.52 52.6756M1061.92 54.076C1071.99 54.4322 1081.97 54.8017 1091.85 55.184M1183.62 59.2424C1197.72 59.9473 1211.53 60.6777 1225.02 61.4313M1245.47 62.6043C1260.35 63.4809 1274.82 64.3857 1288.87 65.3152M1312.31 66.9181C1322.2 67.6162 1331.84 68.3266 1341.24 69.0479M866.893 49.5531L890.835 49.9568" stroke="url(#paint0_linear_213_909)" stroke-opacity="0.5" stroke-width="5" shape-rendering="crispEdges"/>
</g>
<g filter="url(#filter3_f_213_909)">
<path d="M0 78C23.1671 75.7666 36.1519 74.3653 59.8541 72.4117M1436 76.8777C1425.32 75.723 1423.97 76.0178 1412.06 74.8928M169.587 64.4723C194.188 62.8213 197.032 62.3875 221.959 60.9988M304.757 56.5329C329.811 55.3407 419.465 52.5971 440.925 51.8769C460.074 51.4413 480.096 51.0371 502.276 50.5784M633.456 48.0973C659.892 47.8702 670.718 48.114 696.802 48.0973M743.189 48.1446C760.424 48.1974 777.555 48.2938 794.563 48.4318M981.109 51.5708C997.439 51.9892 990.127 51.5791 1006.05 52.067M1069.89 54.5481C1079.97 54.9031 1072.98 54.6633 1082.86 55.0443M1188.6 59.5102C1202.7 60.2128 1203.54 60.2478 1217.03 60.9989M1249.45 62.9837C1264.33 63.8574 1269.83 63.5459 1283.87 64.4723M1318.79 67.4496C1328.67 68.1454 1326.35 67.7231 1335.74 68.442M866.887 49.647L890.829 50.0493" stroke="#FF0015" stroke-opacity="0.22" stroke-width="3"/>
</g>
</g>
<defs>
<filter id="filter0_f_213_909" x="-4.0957" y="43" width="1448.2" height="39.9954" filterUnits="userSpaceOnUse" color-interpolation-filters="sRGB">
<feFlood flood-opacity="0" result="BackgroundImageFix"/>
<feBlend mode="normal" in="SourceGraphic" in2="BackgroundImageFix" result="shape"/>
<feGaussianBlur stdDeviation="2" result="effect1_foregroundBlur_213_909"/>
</filter>
<filter id="filter1_f_213_909" x="-40.0957" y="7" width="1520.2" height="111.995" filterUnits="userSpaceOnUse" color-interpolation-filters="sRGB">
<feFlood flood-opacity="0" result="BackgroundImageFix"/>
<feBlend mode="normal" in="SourceGraphic" in2="BackgroundImageFix" result="shape"/>
<feGaussianBlur stdDeviation="20" result="effect1_foregroundBlur_213_909"/>
</filter>
<filter id="filter2_df_213_909" x="-20.2402" y="25.5" width="1480.51" height="74.9884" filterUnits="userSpaceOnUse" color-interpolation-filters="sRGB">
<feFlood flood-opacity="0" result="BackgroundImageFix"/>
<feColorMatrix in="SourceAlpha" type="matrix" values="0 0 0 0 0 0 0 0 0 0 0 0 0 0 0 0 0 0 127 0" result="hardAlpha"/>
<feOffset/>
<feGaussianBlur stdDeviation="10"/>
<feComposite in2="hardAlpha" operator="out"/>
<feColorMatrix type="matrix" values="0 0 0 0 1 0 0 0 0 0 0 0 0 0 0 0 0 0 0.55 0"/>
<feBlend mode="normal" in2="BackgroundImageFix" result="effect1_dropShadow_213_909"/>
<feBlend mode="normal" in="SourceGraphic" in2="effect1_dropShadow_213_909" result="shape"/>
<feGaussianBlur stdDeviation="5" result="effect2_foregroundBlur_213_909"/>
</filter>
<filter id="filter3_f_213_909" x="-2.14453" y="44.5" width="1440.31" height="36.9931" filterUnits="userSpaceOnUse" color-interpolation-filters="sRGB">
<feFlood flood-opacity="0" result="BackgroundImageFix"/>
<feBlend mode="normal" in="SourceGraphic" in2="BackgroundImageFix" result="shape"/>
<feGaussianBlur stdDeviation="1" result="effect1_foregroundBlur_213_909"/>
</filter>
<linearGradient id="paint0_linear_213_909" x1="-6.93423e-06" y1="77.87" x2="1437.51" y2="77.87" gradientUnits="userSpaceOnUse">
<stop stop-color="#FF6409"/>
<stop offset="0.0439461" stop-color="#FF0100" stop-opacity="0.956054"/>
<stop offset="0.117952" stop-color="#FF7601" stop-opacity="0.882048"/>
<stop offset="0.150843" stop-color="#FF2C01" stop-opacity="0.849157"/>
<stop offset="1" stop-color="#FF1B09"/>
</linearGradient>
<clipPath id="clip0_213_909">
<rect width="1440" height="119" fill="white"/>
</clipPath>
</defs>
</svg>
